<svg id="Layer_2" data-name="Layer 2" xmlns="http://www.w3.org/2000/svg" viewBox="0 0 2364.72 2365.03">
  <defs>
    <style>
      .cls-1 {
        fill: #ff6a00;
        stroke-width: 0px;
      }
    </style>
  </defs>
  <g id="Layer_1-2" data-name="Layer 1">
    <path class="cls-1"
      d="m1182.52,0C529.51,0,0,529.51,0,1182.51c0,114.07,16.03,224.06,46.2,328.4L486.14,325.56h808.25c472.63,0,856.96,384.33,856.96,856.96,0,105.91-19.48,207.09-54.68,301.05h-357.62c58.45-86.11,92.7-189.81,92.7-301.05,0-283.45-220.29-515.99-498.71-535.48l-624.41-1.57L237.57,1893.98c216.2,285.97,559.05,471.05,944.95,471.05,653.01,0,1182.2-529.51,1182.2-1182.51S1835.53,0,1182.52,0Zm735.03,1769.84c-156.18,165.93-377.73,269.63-623.16,269.63H464.46l457.86-1213h341.9l-331.22,893.09h361.39c8.49,0,16.97,0,25.45-.63h642.01c-14.14,17.6-28.91,34.57-44.31,50.91Z" />
  </g>
</svg>