<?xml version="1.0" encoding="UTF-8"?>
<svg id="Layer_2" data-name="Layer 2" xmlns="http://www.w3.org/2000/svg" viewBox="0 0 2778.03 498.17">
  <defs>
    <style>
      .cls-1, .cls-2 {
        stroke-width: 0px;
      }

      .cls-2 {
        fill: #ff6a00;
      }
    </style>
  </defs>
  <g id="Layer_1-2" data-name="Layer 1">
    <g>
      <g>
        <path class="cls-1" d="m672.16,90.97c46.92,0,84.83,13.41,113.74,40.22,28.91,26.81,43.36,62.28,43.36,106.4s-14.46,79.46-43.36,105.99c-28.91,26.53-66.82,39.79-113.74,39.79h-99.28V90.97h99.28Zm-40.22,247.59h40.22c30.72,0,54.59-9.08,71.64-27.23,17.03-18.15,25.55-42.73,25.55-73.73s-8.52-55.57-25.55-73.72c-17.04-18.15-40.92-27.23-71.64-27.23h-40.22v201.92Z"/>
        <path class="cls-1" d="m931.89,92.24c0,10.05-3.49,18.57-10.47,25.55-6.98,6.98-15.44,10.47-25.35,10.47s-18.37-3.49-25.34-10.47c-6.98-6.98-10.47-15.5-10.47-25.55s3.49-18.57,10.47-25.55c6.98-6.98,15.43-10.47,25.34-10.47s18.36,3.49,25.35,10.47c6.98,6.98,10.47,15.49,10.47,25.55Zm-65.35,291.15v-232.08h59.07v232.08h-59.07Z"/>
        <path class="cls-1" d="m994.1,353.01c-20.81-22.48-31.21-51.17-31.21-86.08s10.33-63.46,31-85.66c20.67-22.21,46.92-33.31,78.76-33.31s56.14,13.13,72.89,39.38v-36.03h58.65v233.76c0,33.23-9.78,60.39-29.33,81.48-19.55,21.08-46.99,31.63-82.32,31.63s-63.4-7.34-84.2-22c-20.81-14.66-32.61-35.54-35.4-62.63h57.81c3.63,10.33,10.61,18.49,20.95,24.5,10.33,6.01,23.31,9.01,38.96,9.01s28.7-5.17,39.17-15.5c10.47-10.33,15.71-25.83,15.71-46.49v-40.64c-17.59,28.21-42.04,42.31-73.31,42.31s-57.33-11.23-78.13-33.73Zm133.01-35.6c12.29-12.15,18.43-28.83,18.43-50.06s-6.15-37.91-18.43-50.06c-12.29-12.15-26.67-18.23-43.15-18.23s-30.79,6.01-42.94,18.02c-12.15,12.01-18.23,28.63-18.23,49.85s6.14,37.98,18.44,50.27c12.29,12.29,26.6,18.44,42.94,18.44s30.64-6.08,42.94-18.22Z"/>
        <path class="cls-1" d="m1323.16,92.24c0,10.05-3.49,18.57-10.47,25.55-6.98,6.98-15.44,10.47-25.35,10.47s-18.37-3.49-25.34-10.47c-6.98-6.98-10.47-15.5-10.47-25.55s3.49-18.57,10.47-25.55c6.98-6.98,15.43-10.47,25.34-10.47s18.36,3.49,25.35,10.47c6.98,6.98,10.47,15.49,10.47,25.55Zm-65.35,291.15v-232.08h59.07v232.08h-59.07Z"/>
        <path class="cls-1" d="m1370.49,94.33h29.32v266.43h105.15v22.62h-134.47V94.33Z"/>
        <path class="cls-1" d="m1552.29,353.64c-20.95-22.62-31.42-51.45-31.42-86.51s10.4-63.25,31.21-84.62c20.8-21.37,47.26-32.05,79.38-32.05,20.66,0,38.82,5.03,54.46,15.08,15.64,10.06,27.23,23.05,34.77,38.96v-49.85h29.32v228.73h-29.32v-50.27c-7.54,15.92-19.13,28.98-34.77,39.16-15.64,10.2-33.8,15.3-54.46,15.3-31.84,0-58.23-11.32-79.17-33.94Zm143.48-16.96c16.61-17.18,24.93-39.73,24.93-67.66s-8.31-50.48-24.93-67.66c-16.62-17.17-36.66-25.77-60.12-25.77s-43.43,8.24-59.9,24.72c-16.48,16.48-24.72,38.75-24.72,66.81s8.31,50.98,24.93,68.7c16.61,17.74,36.59,26.6,59.9,26.6s43.29-8.58,59.91-25.76Z"/>
        <path class="cls-1" d="m1922.19,150.46c32.11,0,58.59,10.68,79.4,32.05,20.8,21.37,31.19,49.58,31.19,84.62s-10.47,63.89-31.42,86.51c-20.95,22.62-47.34,33.94-79.18,33.94-20.66,0-38.81-5.1-54.45-15.3-15.65-10.19-27.24-23.24-34.77-39.16v50.27h-29.34V73.38h29.34v131.12c7.53-15.91,19.13-28.9,34.77-38.96,15.63-10.05,33.79-15.08,54.45-15.08Zm-4.6,211.97c23.46,0,43.5-8.86,60.12-26.6,16.6-17.73,24.92-40.63,24.92-68.7s-8.23-50.33-24.72-66.81c-16.48-16.48-36.51-24.72-60.12-24.72s-43.64,8.59-60.1,25.77c-16.48,17.17-24.72,39.73-24.72,67.66s8.23,50.47,24.72,67.66c16.47,17.17,36.44,25.76,59.9,25.76Z"/>
        <path class="cls-1" d="m2167.26,387.57c-32.68,0-59.21-10.89-79.6-32.68-20.39-21.78-30.58-50.48-30.58-86.09s10.4-64.23,31.21-85.88c20.8-21.64,47.75-32.46,80.85-32.46s59.41,10.19,78.97,30.58c19.55,20.39,29.33,45.66,29.33,75.82,0,8.11-.56,15.65-1.68,22.62h-188.51c1.12,26.26,9.07,46.92,23.88,62.01,14.8,15.08,33.51,22.62,56.13,22.62,17.59,0,32.6-4.05,45.04-12.15,12.42-8.1,21.01-18.71,25.77-31.84h31.42c-7.54,19.55-19.83,35.68-36.86,48.39-17.04,12.72-38.82,19.07-65.35,19.07Zm80.01-131.13c0-25.13-7.61-45.17-22.83-60.11-15.22-14.94-34.08-22.42-56.55-22.42s-41.2,7.34-56.14,22c-14.94,14.66-23.11,34.84-24.5,60.53h160.03Z"/>
        <path class="cls-1" d="m2315.97,383.38V73.38h29.33v310h-29.33Z"/>
        <path class="cls-2" d="m2427.61,377.3c-4.05,4.06-8.86,6.08-14.45,6.08s-10.42-2.02-14.46-6.08c-4.06-4.04-6.08-8.86-6.08-14.45s2.02-10.41,6.08-14.46c4.04-4.05,8.86-6.08,14.46-6.08s10.4,2.03,14.45,6.08c4.05,4.05,6.08,8.86,6.08,14.46s-2.03,10.41-6.08,14.45Z"/>
        <path class="cls-1" d="m2517.47,89.93c0,6.01-2.03,11.11-6.08,15.29-4.06,4.19-9.08,6.29-15.09,6.29s-11.1-2.1-15.29-6.29c-4.18-4.18-6.28-9.28-6.28-15.29s2.1-11.1,6.28-15.29c4.19-4.18,9.28-6.28,15.29-6.28s11.03,2.1,15.09,6.28c4.05,4.19,6.08,9.29,6.08,15.29Zm-36.45,293.46v-228.73h29.33v228.73h-29.33Z"/>
        <path class="cls-1" d="m2660.1,387.57c-32.82,0-59.49-10.89-80.01-32.68-20.53-21.78-30.79-50.34-30.79-85.67s10.89-63.95,32.68-85.88c21.78-21.92,49.02-32.88,81.68-32.88s59.91,10.96,81.69,32.88c21.78,21.93,32.68,50.41,32.68,85.46s-11.45,63.61-34.36,85.67c-22.9,22.06-50.75,33.09-83.57,33.09Zm-.21-23.46c23.74,0,44.26-8.51,61.58-25.55,17.32-17.04,25.98-40.28,25.98-69.75s-8.24-52.64-24.72-69.54c-16.48-16.89-36.59-25.35-60.33-25.35s-43.57,8.38-59.49,25.13c-15.91,16.76-23.87,40.08-23.87,69.97s7.54,53.2,22.62,69.96c15.09,16.76,34.49,25.13,58.23,25.13Z"/>
      </g>
      <path class="cls-2" d="m237.18,0C106.2,0,0,106.2,0,237.18c0,22.88,3.21,44.94,9.27,65.87L97.51,65.3h162.11c94.8,0,171.88,77.08,171.88,171.88,0,21.24-3.91,41.54-10.97,60.38h-71.73c11.72-17.27,18.59-38.07,18.59-60.38,0-56.85-44.18-103.49-100.03-107.4l-125.24-.31-94.48,250.41c43.36,57.36,112.13,94.48,189.53,94.48,130.97,0,237.12-106.2,237.12-237.18S368.15,0,237.18,0Zm147.43,354.98c-31.33,33.28-75.76,54.08-124.99,54.08H93.16l91.83-243.29h68.58l-66.43,179.13h72.48c1.7,0,3.4,0,5.11-.13h128.77c-2.84,3.53-5.8,6.93-8.89,10.21Z"/>
    </g>
  </g>
</svg>